<?xml version="1.0" standalone="no"?>
<!DOCTYPE svg PUBLIC "-//W3C//DTD SVG 20010904//EN"
 "http://www.w3.org/TR/2001/REC-SVG-20010904/DTD/svg10.dtd">
<svg version="1.0" xmlns="http://www.w3.org/2000/svg"
 width="722.000000pt" height="722.000000pt" viewBox="0 0 722.000000 722.000000"
 preserveAspectRatio="xMidYMid meet">
<metadata>
Created by potrace 1.14, written by Peter Selinger 2001-2017
</metadata>
<g transform="translate(0.000000,722.000000) scale(0.100000,-0.100000)"
fill="#000000" stroke="none">
<path d="M4667 6604 c-1 -1 -25 -4 -52 -8 -365 -43 -687 -203 -851 -422 -16
-22 -31 -41 -34 -44 -19 -17 -88 -147 -133 -250 -17 -39 -50 -141 -67 -208
l-11 -43 -62 93 c-177 267 -421 519 -693 716 -40 29 -76 52 -82 52 -10 0 -232
-361 -232 -379 0 -6 4 -11 9 -11 11 0 185 -134 243 -188 82 -75 150 -145 243
-252 51 -58 150 -200 203 -290 48 -82 60 -106 116 -233 22 -50 57 -157 72
-216 2 -9 8 -36 15 -61 22 -92 27 -140 13 -140 -7 0 -91 26 -186 57 -95 31
-175 57 -178 58 -3 0 -9 3 -15 6 -5 4 -23 10 -40 14 -44 12 -45 12 -50 15 -3
1 -8 3 -12 5 -5 1 -17 5 -28 9 -49 19 -76 27 -166 51 -169 44 -251 56 -399 60
-154 5 -242 -6 -359 -44 -236 -77 -483 -276 -600 -484 -26 -47 -71 -154 -77
-184 -2 -12 -9 -35 -15 -50 -6 -16 -12 -35 -14 -43 -2 -8 -9 -37 -15 -65 -7
-27 -14 -60 -15 -72 -2 -12 -6 -34 -9 -50 -4 -15 -9 -46 -11 -68 -3 -22 -7
-47 -10 -55 -25 -90 -26 -747 -1 -875 2 -11 7 -47 10 -80 7 -59 13 -106 21
-155 3 -14 7 -43 10 -65 4 -22 8 -47 10 -55 2 -8 7 -31 11 -50 10 -59 13 -73
23 -121 30 -140 105 -398 147 -506 13 -35 36 -93 50 -130 44 -114 143 -312
215 -430 276 -457 636 -726 1039 -779 195 -25 421 0 631 69 105 35 139 49 237
93 l53 24 47 -23 c26 -13 85 -38 132 -57 47 -18 94 -36 105 -41 21 -8 171 -47
209 -55 129 -25 377 -25 491 0 44 9 103 25 130 34 28 9 52 17 55 17 3 1 21 8
40 17 19 8 38 16 42 17 16 3 166 95 225 137 207 148 433 438 585 754 86 178
98 205 98 223 0 9 4 18 9 21 9 6 113 312 125 367 3 13 21 88 41 166 19 77 37
156 40 175 17 93 26 146 31 178 2 19 6 46 9 60 14 77 22 155 40 425 5 68 5
325 1 405 -8 141 -33 335 -60 455 -18 81 -27 116 -37 141 -6 16 -12 36 -14 45
-9 44 -71 174 -115 241 -55 84 -177 204 -285 281 -60 43 -214 124 -249 132 -6
1 -18 5 -26 8 -16 6 -94 27 -120 32 -204 37 -446 15 -710 -67 -36 -11 -164
-53 -285 -93 -264 -89 -344 -111 -346 -97 0 4 -2 14 -4 23 -1 8 -6 42 -10 75
-7 59 -64 294 -84 347 -13 33 -14 60 -3 54 13 -9 271 40 322 60 8 3 21 7 29 9
21 4 122 45 176 72 156 77 307 210 407 357 91 135 177 369 203 550 3 23 7 52
10 65 3 13 8 82 11 153 l7 128 -112 -2 c-61 -2 -112 -4 -114 -5z"/>
</g>
</svg>
