<?xml version="1.0" standalone="no"?>
<!DOCTYPE svg PUBLIC "-//W3C//DTD SVG 20010904//EN"
 "http://www.w3.org/TR/2001/REC-SVG-20010904/DTD/svg10.dtd">
<svg version="1.0" xmlns="http://www.w3.org/2000/svg"
 width="600.000000pt" height="600.000000pt" viewBox="0 0 600.000000 600.000000"
 preserveAspectRatio="xMidYMid meet">
<metadata>
Created by potrace 1.14, written by Peter Selinger 2001-2017
</metadata>
<g transform="translate(0.000000,600.000000) scale(0.100000,-0.100000)"
fill="#000000" stroke="none">
<path d="M3992 5969 c-203 -25 -367 -72 -526 -151 -77 -38 -127 -69 -154 -95
-7 -7 -17 -13 -21 -13 -15 0 -129 -118 -184 -190 -58 -76 -129 -209 -166 -310
-30 -81 -60 -198 -53 -204 3 -3 1 -6 -4 -5 -5 0 -31 35 -58 77 -127 197 -307
403 -496 566 -114 99 -271 216 -289 216 -6 0 -19 -16 -28 -35 -9 -19 -20 -35
-25 -35 -4 0 -8 -4 -8 -9 0 -5 -30 -58 -67 -118 -36 -59 -73 -120 -80 -135 -8
-15 -18 -30 -24 -33 -5 -4 35 -39 89 -79 383 -287 676 -689 785 -1081 33 -118
38 -140 46 -201 l7 -52 -25 9 c-14 5 -75 24 -136 43 -60 19 -182 60 -270 90
-140 47 -308 97 -378 112 -165 34 -380 42 -507 18 -249 -47 -482 -193 -662
-414 -31 -38 -107 -174 -115 -205 -1 -5 -14 -44 -28 -85 -22 -61 -51 -175 -70
-270 -2 -14 -13 -90 -21 -150 -25 -193 -25 -671 1 -855 2 -16 6 -55 9 -85 3
-30 7 -64 10 -75 2 -11 7 -42 10 -70 12 -89 35 -205 73 -365 9 -41 18 -77 18
-80 20 -91 109 -356 167 -500 177 -433 425 -778 702 -974 70 -50 185 -115 236
-135 19 -8 49 -20 65 -27 17 -6 68 -22 115 -35 105 -28 387 -39 497 -19 37 7
82 14 98 17 80 12 275 80 401 139 l52 24 83 -39 c81 -37 220 -87 304 -109 38
-10 55 -14 130 -31 17 -3 127 -6 245 -6 196 0 222 2 294 23 381 113 656 351
923 797 25 42 136 266 163 330 40 92 144 393 154 445 3 14 10 41 16 60 9 30
43 174 56 235 2 11 6 31 9 45 15 72 40 230 50 315 3 28 8 64 10 80 21 159 28
664 11 820 -11 113 -44 293 -71 392 -71 264 -157 400 -361 574 -83 71 -227
152 -330 187 -212 72 -478 72 -744 -2 -111 -30 -140 -40 -400 -126 -277 -92
-335 -106 -336 -80 -3 80 -38 251 -80 389 -14 45 -23 86 -19 89 6 6 17 8 80
16 69 8 192 36 271 62 356 116 591 345 716 699 37 103 62 203 74 290 3 28 8
59 10 70 3 11 7 75 11 143 l6 123 -99 -2 c-55 -2 -127 -6 -162 -10z"/>
</g>
</svg>
